# xmcd
# 
# Track frame offsets:
#     150
#     19383
#     36164
#     57047
#     76280
#     93061
# 
# Disc length: 1519
# 
# Revision: 0
# Processed by: cddbd v1.5.2PL0 Copyright (c) Steve Scherf et al.
# Submitted via: fre:ac v1.0.27
# 
DISCID=3c05ed06
DTITLE=RIRIKO - その未来へ
DYEAR=2017
DGENRE=Anime
TTITLE0=その未来へ
TTITLE1=Take Off!!
TTITLE2=時の砂
TTITLE3=その未来へ(off vocal)
TTITLE4=Take Off!!(off vocal)
TTITLE5=時の砂(off vocal)
EXTD=
EXTT0=
EXTT1=
EXTT2=
EXTT3=
EXTT4=
EXTT5=
PLAYORDER=
